<svg width="114" height="114" viewBox="0 0 114 114" fill="none" xmlns="http://www.w3.org/2000/svg">
<path d="M19.5 88.25C19.5 75.75 44.5 68.875 57 68.875C69.5 68.875 94.5 75.75 94.5 88.25V94.5H19.5V88.25ZM75.75 38.25C75.75 43.2228 73.7746 47.9919 70.2583 51.5083C66.7419 55.0246 61.9728 57 57 57C52.0272 57 47.2581 55.0246 43.7417 51.5083C40.2254 47.9919 38.25 43.2228 38.25 38.25C38.25 33.2772 40.2254 28.5081 43.7417 24.9917C47.2581 21.4754 52.0272 19.5 57 19.5C61.9728 19.5 66.7419 21.4754 70.2583 24.9917C73.7746 28.5081 75.75 33.2772 75.75 38.25ZM0.75 13.25V100.75C0.75 104.065 2.06696 107.245 4.41116 109.589C6.75537 111.933 9.93479 113.25 13.25 113.25H100.75C104.065 113.25 107.245 111.933 109.589 109.589C111.933 107.245 113.25 104.065 113.25 100.75V13.25C113.25 9.93479 111.933 6.75537 109.589 4.41116C107.245 2.06696 104.065 0.75 100.75 0.75H13.25C6.3125 0.75 0.75 6.375 0.75 13.25Z" fill="white"/>
</svg>
