<svg width="114" height="126" viewBox="0 0 114 126" fill="none" xmlns="http://www.w3.org/2000/svg">
<path d="M57 0.5C26 0.5 0.75 25.75 0.75 56.75C0.75 81.1875 16.375 102 38.25 109.687V125.5H50.75V112.625C52.8125 113 54.875 113 57 113C59.125 113 61.1875 113 63.25 112.625V125.5H75.75V109.687C97.625 101.938 113.25 81.125 113.25 56.75C113.25 25.75 88 0.5 57 0.5ZM69.5 81.75C69.5 89.2616 64.5116 94.25 57 94.25C49.4884 94.25 44.5 89.2616 44.5 81.75C44.5 74.2384 57 56.75 57 56.75C57 56.75 69.5 74.2384 69.5 81.75ZM82 44.25H32V31.75H82V44.25Z" fill="white"/>
</svg>
