<svg width="143" height="143" viewBox="0 0 143 143" fill="none" xmlns="http://www.w3.org/2000/svg">
<path d="M71.5 11.9167C41.9467 11.9167 17.875 35.9883 17.875 65.5417C17.875 88.8387 32.7708 108.68 53.625 116.009V131.083H65.5417V118.809C67.5079 119.167 69.4742 119.167 71.5 119.167C73.5258 119.167 75.4921 119.167 77.4583 118.809V131.083H89.375V116.009C110.229 108.62 125.125 88.7792 125.125 65.5417C125.125 35.9883 101.053 11.9167 71.5 11.9167ZM83.4167 89.375C83.4167 96.536 78.661 101.292 71.5 101.292C64.339 101.292 59.5833 96.536 59.5833 89.375C59.5833 82.214 71.5 65.5417 71.5 65.5417C71.5 65.5417 83.4167 82.214 83.4167 89.375ZM95.3333 53.625H47.6667V41.7083H95.3333V53.625Z" fill="black"/>
</svg>
