<svg width="130" height="42" viewBox="0 0 130 42" fill="none" xmlns="http://www.w3.org/2000/svg">
<g clip-path="url(#clip0_161_41)">
<path d="M0.999951 19.52C1.56817 20.7921 2.42397 21.9149 3.49995 22.8C5.55995 24.28 9.49995 24.69 12.5 24.69C15.5 24.69 19.42 24.28 21.5 22.8C22.5832 21.9172 23.446 20.7942 24.02 19.52C24.7447 17.208 25.0826 14.7922 25.02 12.37C25.0074 9.94806 24.6642 7.53915 24 5.21003C23.6635 4.29294 23.1314 3.4601 22.4406 2.76935C21.7499 2.0786 20.917 1.54651 20 1.21003C17.7458 0.446365 15.3799 0.0644476 13 0.0800255C12.8905 0.904583 13.0723 1.74149 13.5142 2.44623C13.956 3.15098 14.6301 3.67932 15.42 3.94003C17.42 4.62003 19.04 5.72003 19.42 7.09003C19.7741 8.84005 19.9218 10.6256 19.86 12.41C19.9179 14.2909 19.7229 16.1711 19.28 18C19.0816 18.5442 18.7353 19.0221 18.28 19.38C17.1 20.21 14.95 20.38 12.48 20.38C10.01 20.38 7.87995 20.19 6.67995 19.38C6.22022 19.0264 5.87287 18.547 5.67995 18C5.18771 16.1719 4.95873 14.2828 4.99995 12.39C4.98605 10.6066 5.13668 8.82575 5.44995 7.07003C5.77995 5.21003 7.08995 4.59003 9.06995 3.92003C9.87561 3.66374 10.5714 3.14342 11.0449 2.44305C11.5185 1.74269 11.7422 0.903169 11.68 0.0600255C9.36232 0.0480713 7.05952 0.430181 4.86995 1.19003C3.95453 1.52945 3.12321 2.06257 2.43285 2.75293C1.74249 3.44329 1.20937 4.27461 0.869951 5.19003C0.253591 7.52903 -0.0391356 9.94149 -4.87855e-05 12.36C-0.0645629 14.7823 0.273361 17.1984 0.999951 19.51" fill="white"/>
<path d="M44.9998 9C44.3098 9.53 40.9998 9.82 37.3798 10.12C32.6198 10.51 28.4398 11.43 27.1298 15.26C26.8871 16.1125 26.8152 17.0045 26.9181 17.8848C27.0211 18.7652 27.2969 19.6165 27.7298 20.39C29.2198 22.67 31.8698 24.63 37.5798 24.63C44.3498 24.63 47.6798 21.93 49.3198 19.35C50.3198 17.7 50.9898 14.43 50.9898 12.06C50.9898 8.15 50.3298 5.81 49.4598 4.4C47.7298 1.63 44.9998 0 38.6098 0C33.1298 0 27.3998 1.46 27.3998 5.69C27.3998 6.9 28.8698 7.97 30.1898 7.95C30.6098 6.36 33.2598 4.43 38.3598 4.34C42.1398 4.26 43.3598 4.69 44.4398 5.44C45.5198 6.19 46.2698 8.08 44.9998 9ZM46.0798 12.48C46.0798 18.01 43.2098 19.71 39.3998 20.08C35.0498 20.5 32.0598 19.54 32.0598 17.01C32.0598 15.23 33.8898 14.3 39.1898 13.96C41.9498 13.78 44.5298 13.37 46.0798 12.49" fill="white"/>
<path d="M84.3399 15.63C85.0399 15.11 88.34 14.81 91.97 14.52C96.72 14.13 100.9 13.21 102.21 9.37C102.457 8.51804 102.531 7.6254 102.428 6.74447C102.324 5.86354 102.047 5.01206 101.61 4.24C100.12 2 97.4699 0 91.7699 0C84.9999 0 81.67 2.69 80 5.27C78.8696 7.53232 78.2937 10.0311 78.3199 12.56C78.3199 16.47 78.99 18.82 79.86 20.2C81.6 23.01 84.3399 24.64 90.7099 24.64C96.2199 24.65 102 23.18 102 19C102 17.79 100.52 16.72 99.2099 16.74C98.75 18.3 96.1 20.23 91 20.31C87.21 20.38 85.9999 19.96 84.9199 19.2C83.8399 18.44 83.1099 16.56 84.3499 15.62L84.3399 15.63ZM83.2799 12.15C83.2799 6.62 86.1399 4.92 89.9599 4.55C94.2999 4.13 97.3 5.08 97.3 7.62C97.3 9.4 95.46 10.33 90.16 10.62C87.4 10.8 84.8299 11.21 83.2799 12.11" fill="white"/>
<path d="M64.9998 10C70.6298 10.5 74.9098 11.16 75.8298 15.59C76.1495 17.1208 75.9635 18.714 75.2998 20.13C74.1198 22.53 70.7898 24.64 64.6098 24.64C59.4798 24.64 53.6098 23.55 53.6098 19.18C53.6995 18.5342 54.0207 17.9429 54.5137 17.5161C55.0066 17.0894 55.6378 16.8562 56.2898 16.86C56.6898 18.5 59.2898 20.13 64.1498 20.22C67.7798 20.29 69.4198 19.86 70.4898 19.07C70.7666 18.8951 70.9946 18.653 71.1526 18.3662C71.3106 18.0795 71.3935 17.7574 71.3935 17.43C71.3935 17.1026 71.3106 16.7805 71.1526 16.4938C70.9946 16.207 70.7666 15.9649 70.4898 15.79C69.4898 15.3 67.9298 14.95 64.4898 14.66C58.8698 14.17 54.6098 13.48 53.6698 9.08C53.3583 7.54791 53.5477 5.95628 54.2098 4.54C55.3198 2.12 58.6398 0 64.8298 0C69.9598 0 75.8298 1.08 75.8298 5.44C75.7493 6.09138 75.4334 6.69085 74.9417 7.12552C74.4499 7.56019 73.8162 7.80008 73.1598 7.8C72.7698 6.16 70.1598 4.52 65.3098 4.42C61.6798 4.36 59.9998 4.79 58.9998 5.57C58.7338 5.754 58.5163 5.99979 58.3661 6.28631C58.2158 6.57282 58.1374 6.8915 58.1374 7.215C58.1374 7.5385 58.2158 7.85718 58.3661 8.14369C58.5163 8.43021 58.7338 8.676 58.9998 8.86C59.9398 9.35 61.5498 9.69 64.9998 9.99" fill="white"/>
<path d="M130 12.38C130 12.38 130 12.66 130 12.38C130.078 9.957 129.74 7.53854 129 5.23C128.432 3.9579 127.576 2.83509 126.5 1.95C124.44 0.469998 120.5 0.0599976 117.5 0.0599976C114.5 0.0599976 110.58 0.469998 108.5 1.95C107.417 2.83286 106.554 3.95585 105.98 5.23C105.255 7.542 104.917 9.95786 104.98 12.38C104.98 13.72 104.98 17.61 104.98 20.21C104.98 22.81 105.82 24.43 109.98 24.43C109.98 22 109.98 14.93 109.98 12.32C109.98 12.32 109.93 8.42 110.61 6.76C110.82 6.22192 111.164 5.74672 111.61 5.38C112.79 4.55 114.94 4.38 117.41 4.38C119.88 4.38 122.01 4.57 123.21 5.38C123.665 5.73828 124.011 6.21611 124.21 6.76C124.626 8.58755 124.837 10.4557 124.84 12.33C124.84 12.33 124.84 17.64 124.84 20.23C124.84 22.82 125.66 24.42 129.84 24.42C130 22 130 12.38 130 12.38Z" fill="white"/>
<path d="M42.9998 30.98H41.3398V32.6H43.0998V30.98H42.9998Z" fill="white"/>
<path d="M37.91 34C37.447 34.2272 37.011 34.5056 36.61 34.83V33.77H35V42.13H36.59V36.3C36.9209 36.0273 37.2835 35.7957 37.67 35.61C38.042 35.4336 38.4483 35.3414 38.86 35.34H39.53L40.12 35.44H40.31V33.84L39.74 33.75H39.21C38.7551 33.7488 38.3052 33.8442 37.89 34.03" fill="white"/>
<path d="M42.8999 33.77H41.4199V42.13H43.0099V33.77H42.8999Z" fill="white"/>
<path d="M48.31 33.86C47.8841 34.0419 47.4866 34.2844 47.13 34.58V33.77H45.53V42.13H47.13V36C47.4652 35.7259 47.835 35.4973 48.23 35.32C48.5864 35.1508 48.9756 35.062 49.37 35.06C49.6625 35.0462 49.9547 35.0904 50.23 35.19C50.4277 35.28 50.5946 35.4261 50.71 35.61C50.8295 35.837 50.9042 36.0848 50.93 36.34L51 37.34V42.09H52.58V36.69C52.6335 35.8405 52.3738 35.0009 51.85 34.33C51.5852 34.0445 51.2604 33.8211 50.8991 33.6759C50.5378 33.5307 50.1488 33.4672 49.76 33.49C49.2555 33.4854 48.7564 33.5947 48.3 33.81" fill="white"/>
<path d="M56.5501 30.55H55.0701V42.13H56.6601V39.36C56.7101 39.3 57.3101 38.73 57.4301 38.62C57.5701 38.76 60.6701 42.14 60.6701 42.14H62.7801L58.6001 37.65L62.5001 33.78H60.5001L56.6601 37.7V30.55H56.5501Z" fill="white"/>
<path d="M74.2799 33.77H72.8099C72.8099 33.77 71.5999 39.17 71.4499 39.77C71.2399 39.15 69.4499 33.77 69.4499 33.77H68.1699L66.1699 39.77C66.0199 39.14 64.7299 33.77 64.7299 33.77H63.1199L65.3399 42.13H66.7499C66.7499 42.13 68.5999 36.6 68.7499 36.05L70.7499 42.13H72.1799L74.3699 33.77H74.2799Z" fill="white"/>
<path d="M86.64 31.42H85.16V33.77H84.23V35.12H85.16V39.37C85.0889 40.1734 85.3327 40.9729 85.84 41.6C86.1076 41.8475 86.4232 42.0373 86.7673 42.1577C87.1113 42.2781 87.4764 42.3266 87.84 42.3L88.67 42.23L89.59 42V40.63H89.41L88.85 40.79L88.18 40.9C87.9045 40.9193 87.628 40.8784 87.37 40.78C87.1974 40.6975 87.0568 40.5604 86.97 40.39C86.8553 40.199 86.79 39.9825 86.78 39.76V38.76V35.12H89.63V33.77H86.74V31.42H86.64Z" fill="white"/>
<path d="M98.0799 37.34C98.1408 36.3236 97.8118 35.3222 97.1599 34.54C96.8157 34.1989 96.4038 33.9337 95.9508 33.7615C95.4979 33.5892 95.0138 33.5138 94.5299 33.54C93.9714 33.5139 93.4138 33.6095 92.8958 33.8201C92.3778 34.0308 91.9118 34.3515 91.5299 34.76C90.7738 35.6639 90.3942 36.824 90.4699 38C90.4313 38.5831 90.5145 39.1679 90.7142 39.7171C90.9139 40.2663 91.2258 40.7679 91.6299 41.19C92.5208 41.9823 93.6897 42.3887 94.8799 42.32C95.4001 42.3252 95.9184 42.2579 96.4199 42.12C96.9111 41.9914 97.3923 41.8277 97.8599 41.63H97.9099V39.93H97.6999C97.346 40.2036 96.9512 40.4196 96.5299 40.57C96.0126 40.7698 95.4644 40.8781 94.9099 40.89C94.5264 40.8973 94.1444 40.8398 93.7799 40.72C93.4571 40.6135 93.1605 40.4397 92.9099 40.21C92.6491 39.9652 92.4474 39.6642 92.3199 39.33C92.1743 38.9571 92.0997 38.5603 92.0999 38.16H98.0999V37.34H98.0799ZM92.0799 36.94C92.1463 36.3975 92.3887 35.8917 92.7699 35.5C92.9967 35.2902 93.2629 35.1274 93.5529 35.021C93.843 34.9146 94.1513 34.8666 94.4599 34.88C94.7443 34.8626 95.0293 34.9033 95.2975 34.9996C95.5657 35.0958 95.8115 35.2457 96.0199 35.44C96.3586 35.8691 96.5355 36.4036 96.5199 36.95H92.0899L92.0799 36.94Z" fill="white"/>
<path d="M102.84 34C102.378 34.2286 101.942 34.5069 101.54 34.83V33.77H100V42.13H101.59V36.3C101.921 36.0276 102.284 35.796 102.67 35.61C103.043 35.4351 103.448 35.343 103.86 35.34H104.53L105.11 35.44H105.3V33.84L104.73 33.75H104.19C103.739 33.7511 103.292 33.8464 102.88 34.03" fill="white"/>
<path d="M32.43 30.55H31V34C30.6793 33.8572 30.344 33.7498 30 33.68C29.6191 33.5745 29.2251 33.524 28.83 33.53C28.3416 33.5266 27.859 33.6361 27.42 33.85C26.9616 34.0404 26.5516 34.3308 26.2199 34.7C25.8632 35.12 25.5854 35.6011 25.4 36.12C25.1949 36.7249 25.1001 37.3616 25.12 38C25.0475 39.135 25.3573 40.2616 26 41.2C26.2758 41.5743 26.6382 41.8762 27.0562 42.0799C27.4741 42.2837 27.9352 42.3832 28.4 42.37C28.8992 42.3749 29.3936 42.2725 29.85 42.07C30.2603 41.8883 30.6465 41.6565 31 41.38V42.14H32.58V30.55H32.48H32.43ZM27.23 40.13C26.8734 39.4793 26.7103 38.7403 26.76 38C26.705 37.2138 26.9241 36.4329 27.3799 35.79C27.5826 35.5304 27.8446 35.3232 28.1438 35.1857C28.4431 35.0483 28.771 34.9846 29.1 35C29.4119 35.0035 29.7231 35.0336 30.03 35.09C30.3485 35.17 30.6596 35.277 30.9599 35.41V40C30.6352 40.26 30.2748 40.4721 29.89 40.63C29.5325 40.7959 29.144 40.8845 28.75 40.89C28.4569 40.9155 28.1624 40.8621 27.8969 40.7355C27.6315 40.6089 27.4046 40.4137 27.24 40.17" fill="white"/>
<path d="M82.44 35.14C82.2878 34.7738 82.0389 34.4558 81.72 34.22C81.3746 33.9749 80.9836 33.8015 80.57 33.71C80.0535 33.6047 79.5272 33.5544 79 33.56C78.4935 33.5606 77.9881 33.6075 77.49 33.7L76.28 34V35.59H76.45C76.9053 35.4119 77.3733 35.2682 77.85 35.16C78.2271 35.0687 78.6124 35.0151 79 35H79.86C80.0969 35.0229 80.3257 35.098 80.53 35.22C80.7088 35.3229 80.8571 35.4713 80.96 35.65C81.0642 35.8825 81.1155 36.1353 81.11 36.39V36.51L79 36.71C78.3829 36.7804 77.7777 36.9317 77.2 37.16C76.7258 37.3648 76.3124 37.6886 76 38.1C75.7046 38.5648 75.5613 39.11 75.59 39.66C75.5783 40.0192 75.6426 40.3768 75.7787 40.7094C75.9149 41.0421 76.1198 41.3421 76.38 41.59C76.6365 41.8402 76.9399 42.0371 77.2729 42.1693C77.6059 42.3014 77.9618 42.3663 78.32 42.36C78.6836 42.3651 79.0464 42.3248 79.4 42.24L80.15 42L80.77 41.63L81.11 41.41V42.18H82.68V36.49C82.6995 36.0279 82.6176 35.5671 82.44 35.14ZM81.11 40C80.7792 40.2486 80.4241 40.463 80.05 40.64C79.6546 40.8202 79.2246 40.9123 78.79 40.91C78.3572 40.9475 77.925 40.8306 77.57 40.58C77.4324 40.455 77.3263 40.2993 77.2602 40.1255C77.1942 39.9518 77.1701 39.7648 77.19 39.58C77.1816 39.4146 77.2074 39.2493 77.2659 39.0944C77.3244 38.9395 77.4143 38.7984 77.53 38.68C77.7824 38.4413 78.0926 38.2724 78.43 38.19C78.8606 38.0901 79.2988 38.0265 79.74 38L81.11 37.89V40Z" fill="white"/>
</g>
<defs>
<clipPath id="clip0_161_41">
<rect width="130" height="42" fill="white"/>
</clipPath>
</defs>
</svg>
