<svg width="126" height="85" viewBox="0 0 126 85" fill="none" xmlns="http://www.w3.org/2000/svg">
<path d="M0.5 0.25V50.25H13V37.75H50.5L63 25.25L50.5 12.75H13V0.25H0.5ZM113 0.25V12.75H63L75.5 25.25L63 37.75H113V50.25H125.5V0.25H113ZM63 50.25C63 50.25 50.5 63.8125 50.5 72.125C50.5 75.4402 51.817 78.6196 54.1612 80.9638C56.5054 83.308 59.6848 84.625 63 84.625C66.3152 84.625 69.4946 83.308 71.8388 80.9638C74.183 78.6196 75.5 75.4402 75.5 72.125C75.5 63.8125 63 50.25 63 50.25Z" fill="white"/>
</svg>
